<svg width="205" height="83" viewBox="0 0 205 83" fill="none" xmlns="http://www.w3.org/2000/svg">
<g clip-path="url(#clip0_128_406)">
<path d="M102.951 80.4705H102.939V80.4877L102.951 80.4705Z" fill="black"/>
<g filter="url(#filter0_d_128_406)">
<path d="M192.891 24.3736C189.672 23.6404 186.302 23.9241 183.254 25.1851C180.239 26.4331 177.687 28.5758 175.949 31.3193V25.4169H173.514V52.6007H150.431C148.806 52.2447 147.263 51.5893 145.882 50.6687C143.686 49.2142 141.975 47.1468 140.963 44.7277C140.297 43.1187 139.954 41.3957 139.955 39.656H169.131C169.13 36.5506 168.201 33.5151 166.462 30.9329C164.726 28.3464 162.255 26.3292 159.362 25.1368C156.469 23.9494 153.287 23.6385 150.216 24.2432C147.146 24.8488 144.325 26.345 142.113 28.542C139.899 30.7371 138.39 33.5341 137.779 36.5793C137.169 39.6248 137.482 42.7812 138.68 45.6502C139.855 48.4537 141.824 50.8595 144.348 52.5766H126.188C126.364 52.4607 126.544 52.3544 126.714 52.2336C129.377 50.3561 131.423 47.7421 132.597 44.718C133.77 41.6961 134.02 38.3987 133.318 35.2365C132.613 32.0734 130.985 29.1859 128.638 26.9336C126.288 24.6879 123.324 23.1764 120.116 22.5865C116.905 21.9962 113.591 22.3557 110.585 23.6201C107.577 24.883 105.013 26.9984 103.212 29.7012C101.407 32.3999 100.444 35.5672 100.446 38.806V52.5911H89.9612C90.9237 51.9684 91.8195 51.2498 92.6348 50.4465C95.7491 47.3518 97.5002 43.1591 97.5046 38.7866C97.5086 35.5192 96.5322 32.3246 94.6996 29.6094C92.8749 26.8954 90.278 24.7804 87.2389 23.5332C84.1999 22.2859 80.8564 21.9598 77.6306 22.5961C74.4047 23.2347 71.4422 24.808 69.1181 27.1171C66.7927 29.4248 65.2098 32.3647 64.5696 35.5649C63.9257 38.7642 64.2546 42.0811 65.5144 45.0947C66.7731 48.1096 68.9051 50.6865 71.6407 52.4993L71.7868 52.5862H53.3494C54.314 51.9646 55.2101 51.2442 56.023 50.4368C59.1379 47.3445 60.8893 43.1531 60.8929 38.7818C60.8969 35.5144 59.9204 32.3198 58.0878 29.6046C56.2666 26.9057 53.6809 24.8016 50.6564 23.5573C47.6162 22.3077 44.2704 21.9816 41.0432 22.6203C37.8112 23.247 34.8397 24.8122 32.5063 27.1171C30.1795 29.4225 28.5948 32.3609 27.953 35.5601C27.3229 38.7641 27.6618 42.0812 28.9269 45.0947C30.1877 48.1071 32.3194 50.6819 35.0533 52.4945L35.1458 52.5476C28.3279 52.3737 23.7259 51.4174 20.6579 50.1953C23.312 47.9204 24.0132 45.3894 24.0132 43.3559V13.5493C24.0132 9.64662 20.7212 7.54553 17.6239 7.54553C16.0874 7.51402 14.59 8.0279 13.4017 8.99456C12.749 9.55341 12.2328 10.252 11.8921 11.0377C11.5441 11.8203 11.3777 12.6703 11.4051 13.5252V43.2835C11.3467 43.9017 11.298 46.3361 13.5625 48.9154C13.9932 49.4022 14.4622 49.8544 14.965 50.2678C10.4555 52.1515 5.0986 52.5814 5.00607 52.5814H3.5451V55.4795H5.00607C8.19583 55.2194 11.3411 54.5705 14.3708 53.5474C15.5425 53.1508 16.6821 52.6664 17.7798 52.0984C22.2211 54.3444 28.8052 55.4795 37.4395 55.4795H100.436V80.4511H102.93V55.4795H175.924V40.5061C175.745 37.7483 176.503 35.004 177.975 32.6572C179.447 30.3106 181.621 28.4784 184.193 27.4166C186.768 26.3575 189.611 26.1227 192.326 26.7452C195.041 27.3682 197.491 28.8172 199.334 30.8894L201.189 29.2713C199.006 26.82 196.105 25.1074 192.891 24.3736ZM143.846 30.3001C145.708 28.4493 148.08 27.187 150.664 26.6727C153.256 26.1627 155.942 26.4249 158.383 27.4262C160.822 28.4292 162.907 30.1269 164.373 32.3046C165.33 33.7319 166 35.3295 166.345 37.0092H140.189C140.717 34.4649 141.989 32.1314 143.846 30.3001ZM17.77 48.7849C17.0531 48.3254 16.3985 47.7768 15.8221 47.1524C14.1225 45.2831 14.2734 43.6361 14.2734 43.5926V13.5493C14.2487 13.1133 14.3236 12.6774 14.4926 12.2742C14.6595 11.8704 14.9177 11.5102 15.2474 11.2212C15.9011 10.6947 16.7238 10.4187 17.5655 10.4436C19.2359 10.4436 21.0328 11.4096 21.0669 13.5687V43.3946C21.0669 45.7178 19.718 47.4712 17.77 48.7849ZM78.1225 52.5331C75.3839 51.9915 72.8678 50.6589 70.8907 48.7028C68.9186 46.7419 67.575 44.2464 67.0289 41.5301C66.4835 38.8123 66.7631 35.995 67.8324 33.4349C68.9002 30.8767 70.7105 28.6911 73.0335 27.1557C75.3556 25.6163 78.0858 24.7943 80.8789 24.7938C82.7337 24.7933 84.5704 25.1552 86.2842 25.8588C87.9979 26.5625 89.5552 27.594 90.867 28.8946C92.1783 30.1957 93.2183 31.7402 93.9277 33.44C94.6371 35.1397 95.002 36.9615 95.0015 38.8011C95.001 41.5714 94.1723 44.2793 92.6201 46.5824C91.0721 48.8864 88.8685 50.682 86.2893 51.741C85.3202 52.1401 84.3091 52.4301 83.2748 52.6056H78.5413C78.4147 52.5766 78.2589 52.5621 78.1225 52.5331ZM34.2936 48.7028C32.3214 46.7419 30.9778 44.2464 30.4317 41.5301C29.8863 38.8123 30.1659 35.995 31.2353 33.4349C32.303 30.8767 34.1133 28.6911 36.4363 27.1557C38.7584 25.6163 41.4886 24.7943 44.2817 24.7938C46.1365 24.7933 47.9732 25.1552 49.687 25.8588C51.4008 26.5625 52.958 27.594 54.2698 28.8946C55.5811 30.1957 56.6212 31.7402 57.3306 33.44C58.04 35.1397 58.4048 36.9615 58.4043 38.8011C58.4 41.5707 57.5679 44.2769 56.0132 46.5776C54.4674 48.887 52.2636 50.6877 49.6824 51.7506C48.7133 52.1498 47.7022 52.4398 46.6679 52.6152H41.9393C41.798 52.5911 41.6568 52.5766 41.5205 52.5476C38.7784 52.0028 36.2604 50.665 34.2838 48.7028H34.2936ZM102.959 39.1875V38.8108C102.959 36.0613 103.777 33.3729 105.311 31.0826C106.829 28.7957 108.992 27.0019 111.53 25.9241C114.083 24.8509 116.898 24.5469 119.624 25.0498C122.35 25.5518 124.867 26.8386 126.86 28.7497C128.863 30.6624 130.252 33.1189 130.854 35.8113C131.449 38.4965 131.237 41.296 130.245 43.8631C129.253 46.4307 127.518 48.6504 125.258 50.2436C123.566 51.4401 121.629 52.2515 119.585 52.62H102.939L102.959 39.1875Z" fill="white"/>
<path d="M192.891 24.3736C189.672 23.6404 186.302 23.9241 183.254 25.1851C180.239 26.4331 177.687 28.5758 175.949 31.3193V25.4169H173.514V52.6007H150.431C148.806 52.2447 147.263 51.5893 145.882 50.6687C143.686 49.2142 141.975 47.1468 140.963 44.7277C140.297 43.1187 139.954 41.3957 139.955 39.656H169.131C169.13 36.5506 168.201 33.5151 166.462 30.9329C164.726 28.3464 162.255 26.3292 159.362 25.1368C156.469 23.9494 153.287 23.6385 150.216 24.2432C147.146 24.8488 144.325 26.345 142.113 28.542C139.899 30.7371 138.39 33.5341 137.779 36.5793C137.169 39.6248 137.482 42.7812 138.68 45.6502C139.855 48.4537 141.824 50.8595 144.348 52.5766H126.188C126.364 52.4607 126.544 52.3544 126.714 52.2336C129.377 50.3561 131.423 47.7421 132.597 44.718C133.77 41.6961 134.02 38.3987 133.318 35.2365C132.613 32.0734 130.985 29.1859 128.638 26.9336C126.288 24.6879 123.324 23.1764 120.116 22.5865C116.905 21.9962 113.591 22.3557 110.585 23.6201C107.577 24.883 105.013 26.9984 103.212 29.7012C101.407 32.3999 100.444 35.5672 100.446 38.806V52.5911H89.9612C90.9237 51.9684 91.8195 51.2498 92.6348 50.4465C95.7491 47.3518 97.5002 43.1591 97.5046 38.7866C97.5086 35.5192 96.5322 32.3246 94.6996 29.6094C92.8749 26.8954 90.278 24.7804 87.2389 23.5332C84.1999 22.2859 80.8564 21.9598 77.6306 22.5961C74.4047 23.2347 71.4422 24.808 69.1181 27.1171C66.7927 29.4248 65.2098 32.3647 64.5696 35.5649C63.9257 38.7642 64.2546 42.0811 65.5144 45.0947C66.7731 48.1096 68.9051 50.6865 71.6407 52.4993L71.7868 52.5862H53.3494C54.314 51.9646 55.2101 51.2442 56.023 50.4368C59.1379 47.3445 60.8893 43.1531 60.8929 38.7818C60.8969 35.5144 59.9204 32.3198 58.0878 29.6046C56.2666 26.9057 53.6809 24.8016 50.6564 23.5573C47.6162 22.3077 44.2704 21.9816 41.0432 22.6203C37.8112 23.247 34.8397 24.8122 32.5063 27.1171C30.1795 29.4225 28.5948 32.3609 27.953 35.5601C27.3229 38.7641 27.6618 42.0812 28.9269 45.0947C30.1877 48.1071 32.3194 50.6819 35.0533 52.4945L35.1458 52.5476C28.3279 52.3737 23.7259 51.4174 20.6579 50.1953C23.312 47.9204 24.0132 45.3894 24.0132 43.3559V13.5493C24.0132 9.64662 20.7212 7.54553 17.6239 7.54553C16.0874 7.51402 14.59 8.0279 13.4017 8.99456C12.749 9.55341 12.2328 10.252 11.8921 11.0377C11.5441 11.8203 11.3777 12.6703 11.4051 13.5252V43.2835C11.3467 43.9017 11.298 46.3361 13.5625 48.9154C13.9932 49.4022 14.4622 49.8544 14.965 50.2678C10.4555 52.1515 5.0986 52.5814 5.00607 52.5814H3.5451V55.4795H5.00607C8.19583 55.2194 11.3411 54.5705 14.3708 53.5474C15.5425 53.1508 16.6821 52.6664 17.7798 52.0984C22.2211 54.3444 28.8052 55.4795 37.4395 55.4795H100.436V80.4511H102.93V55.4795H175.924V40.5061C175.745 37.7483 176.503 35.004 177.975 32.6572C179.447 30.3106 181.621 28.4784 184.193 27.4166C186.768 26.3575 189.611 26.1227 192.326 26.7452C195.041 27.3682 197.491 28.8172 199.334 30.8894L201.189 29.2713C199.006 26.82 196.105 25.1074 192.891 24.3736ZM143.846 30.3001C145.708 28.4493 148.08 27.187 150.664 26.6727C153.256 26.1627 155.942 26.4249 158.383 27.4262C160.822 28.4292 162.907 30.1269 164.373 32.3046C165.33 33.7319 166 35.3295 166.345 37.0092H140.189C140.717 34.4649 141.989 32.1314 143.846 30.3001ZM17.77 48.7849C17.0531 48.3254 16.3985 47.7768 15.8221 47.1524C14.1225 45.2831 14.2734 43.6361 14.2734 43.5926V13.5493C14.2487 13.1133 14.3236 12.6774 14.4926 12.2742C14.6595 11.8704 14.9177 11.5102 15.2474 11.2212C15.9011 10.6947 16.7238 10.4187 17.5655 10.4436C19.2359 10.4436 21.0328 11.4096 21.0669 13.5687V43.3946C21.0669 45.7178 19.718 47.4712 17.77 48.7849ZM78.1225 52.5331C75.3839 51.9915 72.8678 50.6589 70.8907 48.7028C68.9186 46.7419 67.575 44.2464 67.0289 41.5301C66.4835 38.8123 66.7631 35.995 67.8324 33.4349C68.9002 30.8767 70.7105 28.6911 73.0335 27.1557C75.3556 25.6163 78.0858 24.7943 80.8789 24.7938C82.7337 24.7933 84.5704 25.1552 86.2842 25.8588C87.9979 26.5625 89.5552 27.594 90.867 28.8946C92.1783 30.1957 93.2183 31.7402 93.9277 33.44C94.6371 35.1397 95.002 36.9615 95.0015 38.8011C95.001 41.5714 94.1723 44.2793 92.6201 46.5824C91.0721 48.8864 88.8685 50.682 86.2893 51.741C85.3202 52.1401 84.3091 52.4301 83.2748 52.6056H78.5413C78.4147 52.5766 78.2589 52.5621 78.1225 52.5331ZM34.2936 48.7028C32.3214 46.7419 30.9778 44.2464 30.4317 41.5301C29.8863 38.8123 30.1659 35.995 31.2353 33.4349C32.303 30.8767 34.1133 28.6911 36.4363 27.1557C38.7584 25.6163 41.4886 24.7943 44.2817 24.7938C46.1365 24.7933 47.9732 25.1552 49.687 25.8588C51.4008 26.5625 52.958 27.594 54.2698 28.8946C55.5811 30.1957 56.6212 31.7402 57.3306 33.44C58.04 35.1397 58.4048 36.9615 58.4043 38.8011C58.4 41.5707 57.5679 44.2769 56.0132 46.5776C54.4674 48.887 52.2636 50.6877 49.6824 51.7506C48.7133 52.1498 47.7022 52.4398 46.6679 52.6152H41.9393C41.798 52.5911 41.6568 52.5766 41.5205 52.5476C38.7784 52.0028 36.2604 50.665 34.2838 48.7028H34.2936ZM102.959 39.1875V38.8108C102.959 36.0613 103.777 33.3729 105.311 31.0826C106.829 28.7957 108.992 27.0019 111.53 25.9241C114.083 24.8509 116.898 24.5469 119.624 25.0498C122.35 25.5518 124.867 26.8386 126.86 28.7497C128.863 30.6624 130.252 33.1189 130.854 35.8113C131.449 38.4965 131.237 41.296 130.245 43.8631C129.253 46.4307 127.518 48.6504 125.258 50.2436C123.566 51.4401 121.629 52.2515 119.585 52.62H102.939L102.959 39.1875Z" stroke="black" stroke-width="6"/>
</g>
<mask id="path-3-outside-1_128_406" maskUnits="userSpaceOnUse" x="2.5451" y="6.54416" width="201" height="75" fill="black">
<rect fill="white" x="2.5451" y="6.54416" width="201" height="75"/>
<path d="M192.891 24.3736C189.672 23.6404 186.302 23.9241 183.254 25.1851C180.239 26.4331 177.687 28.5758 175.949 31.3193V25.4169H173.514V52.6007H150.431C148.806 52.2447 147.263 51.5893 145.882 50.6687C143.686 49.2142 141.975 47.1468 140.963 44.7277C140.297 43.1187 139.954 41.3957 139.955 39.656H169.131C169.13 36.5506 168.201 33.5151 166.462 30.9329C164.726 28.3464 162.255 26.3292 159.362 25.1368C156.469 23.9494 153.287 23.6385 150.216 24.2432C147.146 24.8488 144.325 26.345 142.113 28.542C139.899 30.7371 138.39 33.5341 137.779 36.5793C137.169 39.6248 137.482 42.7812 138.68 45.6502C139.855 48.4537 141.824 50.8595 144.348 52.5766H126.188C126.364 52.4607 126.544 52.3544 126.714 52.2336C129.377 50.3561 131.423 47.7421 132.597 44.718C133.77 41.6961 134.02 38.3987 133.318 35.2365C132.613 32.0734 130.985 29.1859 128.638 26.9336C126.288 24.6879 123.324 23.1764 120.116 22.5865C116.905 21.9962 113.591 22.3557 110.585 23.6201C107.577 24.883 105.013 26.9984 103.212 29.7012C101.407 32.3999 100.444 35.5672 100.446 38.806V52.5911H89.9612C90.9237 51.9684 91.8195 51.2498 92.6348 50.4465C95.7491 47.3518 97.5002 43.1591 97.5046 38.7866C97.5086 35.5192 96.5322 32.3246 94.6996 29.6094C92.8749 26.8954 90.278 24.7804 87.2389 23.5332C84.1999 22.2859 80.8564 21.9598 77.6306 22.5961C74.4047 23.2347 71.4422 24.808 69.1181 27.1171C66.7927 29.4248 65.2098 32.3647 64.5696 35.5649C63.9257 38.7642 64.2546 42.0811 65.5144 45.0947C66.7731 48.1096 68.9051 50.6865 71.6407 52.4993L71.7868 52.5862H53.3494C54.314 51.9646 55.2101 51.2442 56.023 50.4368C59.1379 47.3445 60.8893 43.1531 60.8929 38.7818C60.8969 35.5144 59.9204 32.3198 58.0878 29.6046C56.2666 26.9057 53.6809 24.8016 50.6564 23.5573C47.6162 22.3077 44.2704 21.9816 41.0432 22.6203C37.8112 23.247 34.8397 24.8122 32.5063 27.1171C30.1795 29.4225 28.5948 32.3609 27.953 35.5601C27.3229 38.7641 27.6618 42.0812 28.9269 45.0947C30.1877 48.1071 32.3194 50.6819 35.0533 52.4945L35.1458 52.5476C28.3279 52.3737 23.7259 51.4174 20.6579 50.1953C23.312 47.9204 24.0132 45.3894 24.0132 43.3559V13.5493C24.0132 9.64662 20.7212 7.54553 17.6239 7.54553C16.0874 7.51402 14.59 8.0279 13.4017 8.99456C12.749 9.55341 12.2328 10.252 11.8921 11.0377C11.5441 11.8203 11.3777 12.6703 11.4051 13.5252V43.2835C11.3467 43.9017 11.298 46.3361 13.5625 48.9154C13.9932 49.4022 14.4622 49.8544 14.965 50.2678C10.4555 52.1515 5.0986 52.5814 5.00607 52.5814H3.5451V55.4795H5.00607C8.19583 55.2194 11.3411 54.5705 14.3708 53.5474C15.5425 53.1508 16.6821 52.6664 17.7798 52.0984C22.2211 54.3444 28.8052 55.4795 37.4395 55.4795H100.436V80.4511H102.93V55.4795H175.924V40.5061C175.745 37.7483 176.503 35.004 177.975 32.6572C179.447 30.3106 181.621 28.4784 184.193 27.4166C186.768 26.3575 189.611 26.1227 192.326 26.7452C195.041 27.3682 197.491 28.8172 199.334 30.8894L201.189 29.2713C199.006 26.82 196.105 25.1074 192.891 24.3736ZM143.846 30.3001C145.708 28.4493 148.08 27.187 150.664 26.6727C153.256 26.1627 155.942 26.4249 158.383 27.4262C160.822 28.4292 162.907 30.1269 164.373 32.3046C165.33 33.7319 166 35.3295 166.345 37.0092H140.189C140.717 34.4649 141.989 32.1314 143.846 30.3001ZM17.77 48.7849C17.0531 48.3254 16.3985 47.7768 15.8221 47.1524C14.1225 45.2831 14.2734 43.6361 14.2734 43.5926V13.5493C14.2487 13.1133 14.3236 12.6774 14.4926 12.2742C14.6595 11.8704 14.9177 11.5102 15.2474 11.2212C15.9011 10.6947 16.7238 10.4187 17.5655 10.4436C19.2359 10.4436 21.0328 11.4096 21.0669 13.5687V43.3946C21.0669 45.7178 19.718 47.4712 17.77 48.7849ZM78.1225 52.5331C75.3839 51.9915 72.8678 50.6589 70.8907 48.7028C68.9186 46.7419 67.575 44.2464 67.0289 41.5301C66.4835 38.8123 66.7631 35.995 67.8324 33.4349C68.9002 30.8767 70.7105 28.6911 73.0335 27.1557C75.3556 25.6163 78.0858 24.7943 80.8789 24.7938C82.7337 24.7933 84.5704 25.1552 86.2842 25.8588C87.9979 26.5625 89.5552 27.594 90.867 28.8946C92.1783 30.1957 93.2183 31.7402 93.9277 33.44C94.6371 35.1397 95.002 36.9615 95.0015 38.8011C95.001 41.5714 94.1723 44.2793 92.6201 46.5824C91.0721 48.8864 88.8685 50.682 86.2893 51.741C85.3202 52.1401 84.3091 52.4301 83.2748 52.6056H78.5413C78.4147 52.5766 78.2589 52.5621 78.1225 52.5331ZM34.2936 48.7028C32.3214 46.7419 30.9778 44.2464 30.4317 41.5301C29.8863 38.8123 30.1659 35.995 31.2353 33.4349C32.303 30.8767 34.1133 28.6911 36.4363 27.1557C38.7584 25.6163 41.4886 24.7943 44.2817 24.7938C46.1365 24.7933 47.9732 25.1552 49.687 25.8588C51.4008 26.5625 52.958 27.594 54.2698 28.8946C55.5811 30.1957 56.6212 31.7402 57.3306 33.44C58.04 35.1397 58.4048 36.9615 58.4043 38.8011C58.4 41.5707 57.5679 44.2769 56.0132 46.5776C54.4674 48.887 52.2636 50.6877 49.6824 51.7506C48.7133 52.1498 47.7022 52.4398 46.6679 52.6152H41.9393C41.798 52.5911 41.6568 52.5766 41.5205 52.5476C38.7784 52.0028 36.2604 50.665 34.2838 48.7028H34.2936ZM102.959 39.1875V38.8108C102.959 36.0613 103.777 33.3729 105.311 31.0826C106.829 28.7957 108.992 27.0019 111.53 25.9241C114.083 24.8509 116.898 24.5469 119.624 25.0498C122.35 25.5518 124.867 26.8386 126.86 28.7497C128.863 30.6624 130.252 33.1189 130.854 35.8113C131.449 38.4965 131.237 41.296 130.245 43.8631C129.253 46.4307 127.518 48.6504 125.258 50.2436C123.566 51.4401 121.629 52.2515 119.585 52.62H102.939L102.959 39.1875Z"/>
</mask>
<path d="M192.891 24.3736C189.672 23.6404 186.302 23.9241 183.254 25.1851C180.239 26.4331 177.687 28.5758 175.949 31.3193V25.4169H173.514V52.6007H150.431C148.806 52.2447 147.263 51.5893 145.882 50.6687C143.686 49.2142 141.975 47.1468 140.963 44.7277C140.297 43.1187 139.954 41.3957 139.955 39.656H169.131C169.13 36.5506 168.201 33.5151 166.462 30.9329C164.726 28.3464 162.255 26.3292 159.362 25.1368C156.469 23.9494 153.287 23.6385 150.216 24.2432C147.146 24.8488 144.325 26.345 142.113 28.542C139.899 30.7371 138.39 33.5341 137.779 36.5793C137.169 39.6248 137.482 42.7812 138.68 45.6502C139.855 48.4537 141.824 50.8595 144.348 52.5766H126.188C126.364 52.4607 126.544 52.3544 126.714 52.2336C129.377 50.3561 131.423 47.7421 132.597 44.718C133.77 41.6961 134.02 38.3987 133.318 35.2365C132.613 32.0734 130.985 29.1859 128.638 26.9336C126.288 24.6879 123.324 23.1764 120.116 22.5865C116.905 21.9962 113.591 22.3557 110.585 23.6201C107.577 24.883 105.013 26.9984 103.212 29.7012C101.407 32.3999 100.444 35.5672 100.446 38.806V52.5911H89.9612C90.9237 51.9684 91.8195 51.2498 92.6348 50.4465C95.7491 47.3518 97.5002 43.1591 97.5046 38.7866C97.5086 35.5192 96.5322 32.3246 94.6996 29.6094C92.8749 26.8954 90.278 24.7804 87.2389 23.5332C84.1999 22.2859 80.8564 21.9598 77.6306 22.5961C74.4047 23.2347 71.4422 24.808 69.1181 27.1171C66.7927 29.4248 65.2098 32.3647 64.5696 35.5649C63.9257 38.7642 64.2546 42.0811 65.5144 45.0947C66.7731 48.1096 68.9051 50.6865 71.6407 52.4993L71.7868 52.5862H53.3494C54.314 51.9646 55.2101 51.2442 56.023 50.4368C59.1379 47.3445 60.8893 43.1531 60.8929 38.7818C60.8969 35.5144 59.9204 32.3198 58.0878 29.6046C56.2666 26.9057 53.6809 24.8016 50.6564 23.5573C47.6162 22.3077 44.2704 21.9816 41.0432 22.6203C37.8112 23.247 34.8397 24.8122 32.5063 27.1171C30.1795 29.4225 28.5948 32.3609 27.953 35.5601C27.3229 38.7641 27.6618 42.0812 28.9269 45.0947C30.1877 48.1071 32.3194 50.6819 35.0533 52.4945L35.1458 52.5476C28.3279 52.3737 23.7259 51.4174 20.6579 50.1953C23.312 47.9204 24.0132 45.3894 24.0132 43.3559V13.5493C24.0132 9.64662 20.7212 7.54553 17.6239 7.54553C16.0874 7.51402 14.59 8.0279 13.4017 8.99456C12.749 9.55341 12.2328 10.252 11.8921 11.0377C11.5441 11.8203 11.3777 12.6703 11.4051 13.5252V43.2835C11.3467 43.9017 11.298 46.3361 13.5625 48.9154C13.9932 49.4022 14.4622 49.8544 14.965 50.2678C10.4555 52.1515 5.0986 52.5814 5.00607 52.5814H3.5451V55.4795H5.00607C8.19583 55.2194 11.3411 54.5705 14.3708 53.5474C15.5425 53.1508 16.6821 52.6664 17.7798 52.0984C22.2211 54.3444 28.8052 55.4795 37.4395 55.4795H100.436V80.4511H102.93V55.4795H175.924V40.5061C175.745 37.7483 176.503 35.004 177.975 32.6572C179.447 30.3106 181.621 28.4784 184.193 27.4166C186.768 26.3575 189.611 26.1227 192.326 26.7452C195.041 27.3682 197.491 28.8172 199.334 30.8894L201.189 29.2713C199.006 26.82 196.105 25.1074 192.891 24.3736ZM143.846 30.3001C145.708 28.4493 148.08 27.187 150.664 26.6727C153.256 26.1627 155.942 26.4249 158.383 27.4262C160.822 28.4292 162.907 30.1269 164.373 32.3046C165.33 33.7319 166 35.3295 166.345 37.0092H140.189C140.717 34.4649 141.989 32.1314 143.846 30.3001ZM17.77 48.7849C17.0531 48.3254 16.3985 47.7768 15.8221 47.1524C14.1225 45.2831 14.2734 43.6361 14.2734 43.5926V13.5493C14.2487 13.1133 14.3236 12.6774 14.4926 12.2742C14.6595 11.8704 14.9177 11.5102 15.2474 11.2212C15.9011 10.6947 16.7238 10.4187 17.5655 10.4436C19.2359 10.4436 21.0328 11.4096 21.0669 13.5687V43.3946C21.0669 45.7178 19.718 47.4712 17.77 48.7849ZM78.1225 52.5331C75.3839 51.9915 72.8678 50.6589 70.8907 48.7028C68.9186 46.7419 67.575 44.2464 67.0289 41.5301C66.4835 38.8123 66.7631 35.995 67.8324 33.4349C68.9002 30.8767 70.7105 28.6911 73.0335 27.1557C75.3556 25.6163 78.0858 24.7943 80.8789 24.7938C82.7337 24.7933 84.5704 25.1552 86.2842 25.8588C87.9979 26.5625 89.5552 27.594 90.867 28.8946C92.1783 30.1957 93.2183 31.7402 93.9277 33.44C94.6371 35.1397 95.002 36.9615 95.0015 38.8011C95.001 41.5714 94.1723 44.2793 92.6201 46.5824C91.0721 48.8864 88.8685 50.682 86.2893 51.741C85.3202 52.1401 84.3091 52.4301 83.2748 52.6056H78.5413C78.4147 52.5766 78.2589 52.5621 78.1225 52.5331ZM34.2936 48.7028C32.3214 46.7419 30.9778 44.2464 30.4317 41.5301C29.8863 38.8123 30.1659 35.995 31.2353 33.4349C32.303 30.8767 34.1133 28.6911 36.4363 27.1557C38.7584 25.6163 41.4886 24.7943 44.2817 24.7938C46.1365 24.7933 47.9732 25.1552 49.687 25.8588C51.4008 26.5625 52.958 27.594 54.2698 28.8946C55.5811 30.1957 56.6212 31.7402 57.3306 33.44C58.04 35.1397 58.4048 36.9615 58.4043 38.8011C58.4 41.5707 57.5679 44.2769 56.0132 46.5776C54.4674 48.887 52.2636 50.6877 49.6824 51.7506C48.7133 52.1498 47.7022 52.4398 46.6679 52.6152H41.9393C41.798 52.5911 41.6568 52.5766 41.5205 52.5476C38.7784 52.0028 36.2604 50.665 34.2838 48.7028H34.2936ZM102.959 39.1875V38.8108C102.959 36.0613 103.777 33.3729 105.311 31.0826C106.829 28.7957 108.992 27.0019 111.53 25.9241C114.083 24.8509 116.898 24.5469 119.624 25.0498C122.35 25.5518 124.867 26.8386 126.86 28.7497C128.863 30.6624 130.252 33.1189 130.854 35.8113C131.449 38.4965 131.237 41.296 130.245 43.8631C129.253 46.4307 127.518 48.6504 125.258 50.2436C123.566 51.4401 121.629 52.2515 119.585 52.62H102.939L102.959 39.1875Z" fill="white"/>
<path d="M192.891 24.3736C189.672 23.6404 186.302 23.9241 183.254 25.1851C180.239 26.4331 177.687 28.5758 175.949 31.3193V25.4169H173.514V52.6007H150.431C148.806 52.2447 147.263 51.5893 145.882 50.6687C143.686 49.2142 141.975 47.1468 140.963 44.7277C140.297 43.1187 139.954 41.3957 139.955 39.656H169.131C169.13 36.5506 168.201 33.5151 166.462 30.9329C164.726 28.3464 162.255 26.3292 159.362 25.1368C156.469 23.9494 153.287 23.6385 150.216 24.2432C147.146 24.8488 144.325 26.345 142.113 28.542C139.899 30.7371 138.39 33.5341 137.779 36.5793C137.169 39.6248 137.482 42.7812 138.68 45.6502C139.855 48.4537 141.824 50.8595 144.348 52.5766H126.188C126.364 52.4607 126.544 52.3544 126.714 52.2336C129.377 50.3561 131.423 47.7421 132.597 44.718C133.77 41.6961 134.02 38.3987 133.318 35.2365C132.613 32.0734 130.985 29.1859 128.638 26.9336C126.288 24.6879 123.324 23.1764 120.116 22.5865C116.905 21.9962 113.591 22.3557 110.585 23.6201C107.577 24.883 105.013 26.9984 103.212 29.7012C101.407 32.3999 100.444 35.5672 100.446 38.806V52.5911H89.9612C90.9237 51.9684 91.8195 51.2498 92.6348 50.4465C95.7491 47.3518 97.5002 43.1591 97.5046 38.7866C97.5086 35.5192 96.5322 32.3246 94.6996 29.6094C92.8749 26.8954 90.278 24.7804 87.2389 23.5332C84.1999 22.2859 80.8564 21.9598 77.6306 22.5961C74.4047 23.2347 71.4422 24.808 69.1181 27.1171C66.7927 29.4248 65.2098 32.3647 64.5696 35.5649C63.9257 38.7642 64.2546 42.0811 65.5144 45.0947C66.7731 48.1096 68.9051 50.6865 71.6407 52.4993L71.7868 52.5862H53.3494C54.314 51.9646 55.2101 51.2442 56.023 50.4368C59.1379 47.3445 60.8893 43.1531 60.8929 38.7818C60.8969 35.5144 59.9204 32.3198 58.0878 29.6046C56.2666 26.9057 53.6809 24.8016 50.6564 23.5573C47.6162 22.3077 44.2704 21.9816 41.0432 22.6203C37.8112 23.247 34.8397 24.8122 32.5063 27.1171C30.1795 29.4225 28.5948 32.3609 27.953 35.5601C27.3229 38.7641 27.6618 42.0812 28.9269 45.0947C30.1877 48.1071 32.3194 50.6819 35.0533 52.4945L35.1458 52.5476C28.3279 52.3737 23.7259 51.4174 20.6579 50.1953C23.312 47.9204 24.0132 45.3894 24.0132 43.3559V13.5493C24.0132 9.64662 20.7212 7.54553 17.6239 7.54553C16.0874 7.51402 14.59 8.0279 13.4017 8.99456C12.749 9.55341 12.2328 10.252 11.8921 11.0377C11.5441 11.8203 11.3777 12.6703 11.4051 13.5252V43.2835C11.3467 43.9017 11.298 46.3361 13.5625 48.9154C13.9932 49.4022 14.4622 49.8544 14.965 50.2678C10.4555 52.1515 5.0986 52.5814 5.00607 52.5814H3.5451V55.4795H5.00607C8.19583 55.2194 11.3411 54.5705 14.3708 53.5474C15.5425 53.1508 16.6821 52.6664 17.7798 52.0984C22.2211 54.3444 28.8052 55.4795 37.4395 55.4795H100.436V80.4511H102.93V55.4795H175.924V40.5061C175.745 37.7483 176.503 35.004 177.975 32.6572C179.447 30.3106 181.621 28.4784 184.193 27.4166C186.768 26.3575 189.611 26.1227 192.326 26.7452C195.041 27.3682 197.491 28.8172 199.334 30.8894L201.189 29.2713C199.006 26.82 196.105 25.1074 192.891 24.3736ZM143.846 30.3001C145.708 28.4493 148.08 27.187 150.664 26.6727C153.256 26.1627 155.942 26.4249 158.383 27.4262C160.822 28.4292 162.907 30.1269 164.373 32.3046C165.33 33.7319 166 35.3295 166.345 37.0092H140.189C140.717 34.4649 141.989 32.1314 143.846 30.3001ZM17.77 48.7849C17.0531 48.3254 16.3985 47.7768 15.8221 47.1524C14.1225 45.2831 14.2734 43.6361 14.2734 43.5926V13.5493C14.2487 13.1133 14.3236 12.6774 14.4926 12.2742C14.6595 11.8704 14.9177 11.5102 15.2474 11.2212C15.9011 10.6947 16.7238 10.4187 17.5655 10.4436C19.2359 10.4436 21.0328 11.4096 21.0669 13.5687V43.3946C21.0669 45.7178 19.718 47.4712 17.77 48.7849ZM78.1225 52.5331C75.3839 51.9915 72.8678 50.6589 70.8907 48.7028C68.9186 46.7419 67.575 44.2464 67.0289 41.5301C66.4835 38.8123 66.7631 35.995 67.8324 33.4349C68.9002 30.8767 70.7105 28.6911 73.0335 27.1557C75.3556 25.6163 78.0858 24.7943 80.8789 24.7938C82.7337 24.7933 84.5704 25.1552 86.2842 25.8588C87.9979 26.5625 89.5552 27.594 90.867 28.8946C92.1783 30.1957 93.2183 31.7402 93.9277 33.44C94.6371 35.1397 95.002 36.9615 95.0015 38.8011C95.001 41.5714 94.1723 44.2793 92.6201 46.5824C91.0721 48.8864 88.8685 50.682 86.2893 51.741C85.3202 52.1401 84.3091 52.4301 83.2748 52.6056H78.5413C78.4147 52.5766 78.2589 52.5621 78.1225 52.5331ZM34.2936 48.7028C32.3214 46.7419 30.9778 44.2464 30.4317 41.5301C29.8863 38.8123 30.1659 35.995 31.2353 33.4349C32.303 30.8767 34.1133 28.6911 36.4363 27.1557C38.7584 25.6163 41.4886 24.7943 44.2817 24.7938C46.1365 24.7933 47.9732 25.1552 49.687 25.8588C51.4008 26.5625 52.958 27.594 54.2698 28.8946C55.5811 30.1957 56.6212 31.7402 57.3306 33.44C58.04 35.1397 58.4048 36.9615 58.4043 38.8011C58.4 41.5707 57.5679 44.2769 56.0132 46.5776C54.4674 48.887 52.2636 50.6877 49.6824 51.7506C48.7133 52.1498 47.7022 52.4398 46.6679 52.6152H41.9393C41.798 52.5911 41.6568 52.5766 41.5205 52.5476C38.7784 52.0028 36.2604 50.665 34.2838 48.7028H34.2936ZM102.959 39.1875V38.8108C102.959 36.0613 103.777 33.3729 105.311 31.0826C106.829 28.7957 108.992 27.0019 111.53 25.9241C114.083 24.8509 116.898 24.5469 119.624 25.0498C122.35 25.5518 124.867 26.8386 126.86 28.7497C128.863 30.6624 130.252 33.1189 130.854 35.8113C131.449 38.4965 131.237 41.296 130.245 43.8631C129.253 46.4307 127.518 48.6504 125.258 50.2436C123.566 51.4401 121.629 52.2515 119.585 52.62H102.939L102.959 39.1875Z" stroke="white" stroke-width="2" mask="url(#path-3-outside-1_128_406)"/>
<mask id="path-4-outside-2_128_406" maskUnits="userSpaceOnUse" x="2.5451" y="6.54416" width="201" height="75" fill="black">
<rect fill="white" x="2.5451" y="6.54416" width="201" height="75"/>
<path d="M192.891 24.3736C189.672 23.6404 186.302 23.9241 183.254 25.1851C180.239 26.4331 177.687 28.5758 175.949 31.3193V25.4169H173.514V52.6007H150.431C148.806 52.2447 147.263 51.5893 145.882 50.6687C143.686 49.2142 141.975 47.1468 140.963 44.7277C140.297 43.1187 139.954 41.3957 139.955 39.656H169.131C169.13 36.5506 168.201 33.5151 166.462 30.9329C164.726 28.3464 162.255 26.3292 159.362 25.1368C156.469 23.9494 153.287 23.6385 150.216 24.2432C147.146 24.8488 144.325 26.345 142.113 28.542C139.899 30.7371 138.39 33.5341 137.779 36.5793C137.169 39.6248 137.482 42.7812 138.68 45.6502C139.855 48.4537 141.824 50.8595 144.348 52.5766H126.188C126.364 52.4607 126.544 52.3544 126.714 52.2336C129.377 50.3561 131.423 47.7421 132.597 44.718C133.77 41.6961 134.02 38.3987 133.318 35.2365C132.613 32.0734 130.985 29.1859 128.638 26.9336C126.288 24.6879 123.324 23.1764 120.116 22.5865C116.905 21.9962 113.591 22.3557 110.585 23.6201C107.577 24.883 105.013 26.9984 103.212 29.7012C101.407 32.3999 100.444 35.5672 100.446 38.806V52.5911H89.9612C90.9237 51.9684 91.8195 51.2498 92.6348 50.4465C95.7491 47.3518 97.5002 43.1591 97.5046 38.7866C97.5086 35.5192 96.5322 32.3246 94.6996 29.6094C92.8749 26.8954 90.278 24.7804 87.2389 23.5332C84.1999 22.2859 80.8564 21.9598 77.6306 22.5961C74.4047 23.2347 71.4422 24.808 69.1181 27.1171C66.7927 29.4248 65.2098 32.3647 64.5696 35.5649C63.9257 38.7642 64.2546 42.0811 65.5144 45.0947C66.7731 48.1096 68.9051 50.6865 71.6407 52.4993L71.7868 52.5862H53.3494C54.314 51.9646 55.2101 51.2442 56.023 50.4368C59.1379 47.3445 60.8893 43.1531 60.8929 38.7818C60.8969 35.5144 59.9204 32.3198 58.0878 29.6046C56.2666 26.9057 53.6809 24.8016 50.6564 23.5573C47.6162 22.3077 44.2704 21.9816 41.0432 22.6203C37.8112 23.247 34.8397 24.8122 32.5063 27.1171C30.1795 29.4225 28.5948 32.3609 27.953 35.5601C27.3229 38.7641 27.6618 42.0812 28.9269 45.0947C30.1877 48.1071 32.3194 50.6819 35.0533 52.4945L35.1458 52.5476C28.3279 52.3737 23.7259 51.4174 20.6579 50.1953C23.312 47.9204 24.0132 45.3894 24.0132 43.3559V13.5493C24.0132 9.64662 20.7212 7.54553 17.6239 7.54553C16.0874 7.51402 14.59 8.0279 13.4017 8.99456C12.749 9.55341 12.2328 10.252 11.8921 11.0377C11.5441 11.8203 11.3777 12.6703 11.4051 13.5252V43.2835C11.3467 43.9017 11.298 46.3361 13.5625 48.9154C13.9932 49.4022 14.4622 49.8544 14.965 50.2678C10.4555 52.1515 5.0986 52.5814 5.00607 52.5814H3.5451V55.4795H5.00607C8.19583 55.2194 11.3411 54.5705 14.3708 53.5474C15.5425 53.1508 16.6821 52.6664 17.7798 52.0984C22.2211 54.3444 28.8052 55.4795 37.4395 55.4795H100.436V80.4511H102.93V55.4795H175.924V40.5061V40.481C175.745 37.7232 176.503 35.004 177.975 32.6572C179.447 30.3106 181.621 28.4784 184.193 27.4166C186.768 26.3575 189.611 26.1227 192.326 26.7452C195.041 27.3682 197.491 28.8172 199.334 30.8894L201.189 29.2713C199.006 26.82 196.105 25.1074 192.891 24.3736ZM143.846 30.3001C145.708 28.4493 148.08 27.187 150.664 26.6727C153.256 26.1627 155.942 26.4249 158.383 27.4262C160.822 28.4292 162.907 30.1269 164.373 32.3046C165.33 33.7319 166 35.3295 166.345 37.0092H140.189C140.717 34.4649 141.989 32.1314 143.846 30.3001ZM17.77 48.7849C17.0531 48.3254 16.3985 47.7768 15.8221 47.1524C14.1225 45.2831 14.2734 43.6361 14.2734 43.5926V13.5493C14.2487 13.1133 14.3236 12.6774 14.4926 12.2742C14.6595 11.8704 14.9177 11.5102 15.2474 11.2212C15.9011 10.6947 16.7238 10.4187 17.5655 10.4436C19.2359 10.4436 21.0328 11.4096 21.0669 13.5687V43.3946C21.0669 45.7178 19.718 47.4712 17.77 48.7849ZM78.1225 52.5331C75.3839 51.9915 72.8678 50.6589 70.8907 48.7028C68.9186 46.7419 67.575 44.2464 67.0289 41.5301C66.4835 38.8123 66.7631 35.995 67.8324 33.4349C68.9002 30.8767 70.7105 28.6911 73.0335 27.1557C75.3556 25.6163 78.0858 24.7943 80.8789 24.7938C82.7337 24.7933 84.5704 25.1552 86.2842 25.8588C87.9979 26.5625 89.5552 27.594 90.867 28.8946C92.1783 30.1957 93.2183 31.7402 93.9277 33.44C94.6371 35.1397 95.002 36.9615 95.0015 38.8011C95.001 41.5714 94.1723 44.2793 92.6201 46.5824C91.0721 48.8864 88.8685 50.682 86.2893 51.741C85.3202 52.1401 84.3091 52.4301 83.2748 52.6056H78.5413C78.4147 52.5766 78.2589 52.5621 78.1225 52.5331ZM34.2936 48.7028C32.3214 46.7419 30.9778 44.2464 30.4317 41.5301C29.8863 38.8123 30.1659 35.995 31.2353 33.4349C32.303 30.8767 34.1133 28.6911 36.4363 27.1557C38.7584 25.6163 41.4886 24.7943 44.2817 24.7938C46.1365 24.7933 47.9732 25.1552 49.687 25.8588C51.4008 26.5625 52.958 27.594 54.2698 28.8946C55.5811 30.1957 56.6212 31.7402 57.3306 33.44C58.04 35.1397 58.4048 36.9615 58.4043 38.8011C58.4 41.5707 57.5679 44.2769 56.0132 46.5776C54.4674 48.887 52.2636 50.6877 49.6824 51.7506C48.7133 52.1498 47.7022 52.4398 46.6679 52.6152H41.9393C41.798 52.5911 41.6568 52.5766 41.5205 52.5476C38.7784 52.0028 36.2604 50.665 34.2838 48.7028H34.2936ZM102.959 39.1875V38.8108C102.959 36.0613 103.777 33.3729 105.311 31.0826C106.829 28.7957 108.992 27.0019 111.53 25.9241C114.083 24.8509 116.898 24.5469 119.624 25.0498C122.35 25.5518 124.867 26.8386 126.86 28.7497C128.863 30.6624 130.252 33.1189 130.854 35.8113C131.449 38.4965 131.237 41.296 130.245 43.8631C129.253 46.4307 127.518 48.6504 125.258 50.2436C123.566 51.4401 121.629 52.2515 119.585 52.62H102.939L102.959 39.1875Z"/>
</mask>
<path d="M192.891 24.3736C189.672 23.6404 186.302 23.9241 183.254 25.1851C180.239 26.4331 177.687 28.5758 175.949 31.3193V25.4169H173.514V52.6007H150.431C148.806 52.2447 147.263 51.5893 145.882 50.6687C143.686 49.2142 141.975 47.1468 140.963 44.7277C140.297 43.1187 139.954 41.3957 139.955 39.656H169.131C169.13 36.5506 168.201 33.5151 166.462 30.9329C164.726 28.3464 162.255 26.3292 159.362 25.1368C156.469 23.9494 153.287 23.6385 150.216 24.2432C147.146 24.8488 144.325 26.345 142.113 28.542C139.899 30.7371 138.39 33.5341 137.779 36.5793C137.169 39.6248 137.482 42.7812 138.68 45.6502C139.855 48.4537 141.824 50.8595 144.348 52.5766H126.188C126.364 52.4607 126.544 52.3544 126.714 52.2336C129.377 50.3561 131.423 47.7421 132.597 44.718C133.77 41.6961 134.02 38.3987 133.318 35.2365C132.613 32.0734 130.985 29.1859 128.638 26.9336C126.288 24.6879 123.324 23.1764 120.116 22.5865C116.905 21.9962 113.591 22.3557 110.585 23.6201C107.577 24.883 105.013 26.9984 103.212 29.7012C101.407 32.3999 100.444 35.5672 100.446 38.806V52.5911H89.9612C90.9237 51.9684 91.8195 51.2498 92.6348 50.4465C95.7491 47.3518 97.5002 43.1591 97.5046 38.7866C97.5086 35.5192 96.5322 32.3246 94.6996 29.6094C92.8749 26.8954 90.278 24.7804 87.2389 23.5332C84.1999 22.2859 80.8564 21.9598 77.6306 22.5961C74.4047 23.2347 71.4422 24.808 69.1181 27.1171C66.7927 29.4248 65.2098 32.3647 64.5696 35.5649C63.9257 38.7642 64.2546 42.0811 65.5144 45.0947C66.7731 48.1096 68.9051 50.6865 71.6407 52.4993L71.7868 52.5862H53.3494C54.314 51.9646 55.2101 51.2442 56.023 50.4368C59.1379 47.3445 60.8893 43.1531 60.8929 38.7818C60.8969 35.5144 59.9204 32.3198 58.0878 29.6046C56.2666 26.9057 53.6809 24.8016 50.6564 23.5573C47.6162 22.3077 44.2704 21.9816 41.0432 22.6203C37.8112 23.247 34.8397 24.8122 32.5063 27.1171C30.1795 29.4225 28.5948 32.3609 27.953 35.5601C27.3229 38.7641 27.6618 42.0812 28.9269 45.0947C30.1877 48.1071 32.3194 50.6819 35.0533 52.4945L35.1458 52.5476C28.3279 52.3737 23.7259 51.4174 20.6579 50.1953C23.312 47.9204 24.0132 45.3894 24.0132 43.3559V13.5493C24.0132 9.64662 20.7212 7.54553 17.6239 7.54553C16.0874 7.51402 14.59 8.0279 13.4017 8.99456C12.749 9.55341 12.2328 10.252 11.8921 11.0377C11.5441 11.8203 11.3777 12.6703 11.4051 13.5252V43.2835C11.3467 43.9017 11.298 46.3361 13.5625 48.9154C13.9932 49.4022 14.4622 49.8544 14.965 50.2678C10.4555 52.1515 5.0986 52.5814 5.00607 52.5814H3.5451V55.4795H5.00607C8.19583 55.2194 11.3411 54.5705 14.3708 53.5474C15.5425 53.1508 16.6821 52.6664 17.7798 52.0984C22.2211 54.3444 28.8052 55.4795 37.4395 55.4795H100.436V80.4511H102.93V55.4795H175.924V40.5061V40.481C175.745 37.7232 176.503 35.004 177.975 32.6572C179.447 30.3106 181.621 28.4784 184.193 27.4166C186.768 26.3575 189.611 26.1227 192.326 26.7452C195.041 27.3682 197.491 28.8172 199.334 30.8894L201.189 29.2713C199.006 26.82 196.105 25.1074 192.891 24.3736ZM143.846 30.3001C145.708 28.4493 148.08 27.187 150.664 26.6727C153.256 26.1627 155.942 26.4249 158.383 27.4262C160.822 28.4292 162.907 30.1269 164.373 32.3046C165.33 33.7319 166 35.3295 166.345 37.0092H140.189C140.717 34.4649 141.989 32.1314 143.846 30.3001ZM17.77 48.7849C17.0531 48.3254 16.3985 47.7768 15.8221 47.1524C14.1225 45.2831 14.2734 43.6361 14.2734 43.5926V13.5493C14.2487 13.1133 14.3236 12.6774 14.4926 12.2742C14.6595 11.8704 14.9177 11.5102 15.2474 11.2212C15.9011 10.6947 16.7238 10.4187 17.5655 10.4436C19.2359 10.4436 21.0328 11.4096 21.0669 13.5687V43.3946C21.0669 45.7178 19.718 47.4712 17.77 48.7849ZM78.1225 52.5331C75.3839 51.9915 72.8678 50.6589 70.8907 48.7028C68.9186 46.7419 67.575 44.2464 67.0289 41.5301C66.4835 38.8123 66.7631 35.995 67.8324 33.4349C68.9002 30.8767 70.7105 28.6911 73.0335 27.1557C75.3556 25.6163 78.0858 24.7943 80.8789 24.7938C82.7337 24.7933 84.5704 25.1552 86.2842 25.8588C87.9979 26.5625 89.5552 27.594 90.867 28.8946C92.1783 30.1957 93.2183 31.7402 93.9277 33.44C94.6371 35.1397 95.002 36.9615 95.0015 38.8011C95.001 41.5714 94.1723 44.2793 92.6201 46.5824C91.0721 48.8864 88.8685 50.682 86.2893 51.741C85.3202 52.1401 84.3091 52.4301 83.2748 52.6056H78.5413C78.4147 52.5766 78.2589 52.5621 78.1225 52.5331ZM34.2936 48.7028C32.3214 46.7419 30.9778 44.2464 30.4317 41.5301C29.8863 38.8123 30.1659 35.995 31.2353 33.4349C32.303 30.8767 34.1133 28.6911 36.4363 27.1557C38.7584 25.6163 41.4886 24.7943 44.2817 24.7938C46.1365 24.7933 47.9732 25.1552 49.687 25.8588C51.4008 26.5625 52.958 27.594 54.2698 28.8946C55.5811 30.1957 56.6212 31.7402 57.3306 33.44C58.04 35.1397 58.4048 36.9615 58.4043 38.8011C58.4 41.5707 57.5679 44.2769 56.0132 46.5776C54.4674 48.887 52.2636 50.6877 49.6824 51.7506C48.7133 52.1498 47.7022 52.4398 46.6679 52.6152H41.9393C41.798 52.5911 41.6568 52.5766 41.5205 52.5476C38.7784 52.0028 36.2604 50.665 34.2838 48.7028H34.2936ZM102.959 39.1875V38.8108C102.959 36.0613 103.777 33.3729 105.311 31.0826C106.829 28.7957 108.992 27.0019 111.53 25.9241C114.083 24.8509 116.898 24.5469 119.624 25.0498C122.35 25.5518 124.867 26.8386 126.86 28.7497C128.863 30.6624 130.252 33.1189 130.854 35.8113C131.449 38.4965 131.237 41.296 130.245 43.8631C129.253 46.4307 127.518 48.6504 125.258 50.2436C123.566 51.4401 121.629 52.2515 119.585 52.62H102.939L102.959 39.1875Z" fill="white"/>
<path d="M192.891 24.3736C189.672 23.6404 186.302 23.9241 183.254 25.1851C180.239 26.4331 177.687 28.5758 175.949 31.3193V25.4169H173.514V52.6007H150.431C148.806 52.2447 147.263 51.5893 145.882 50.6687C143.686 49.2142 141.975 47.1468 140.963 44.7277C140.297 43.1187 139.954 41.3957 139.955 39.656H169.131C169.13 36.5506 168.201 33.5151 166.462 30.9329C164.726 28.3464 162.255 26.3292 159.362 25.1368C156.469 23.9494 153.287 23.6385 150.216 24.2432C147.146 24.8488 144.325 26.345 142.113 28.542C139.899 30.7371 138.39 33.5341 137.779 36.5793C137.169 39.6248 137.482 42.7812 138.68 45.6502C139.855 48.4537 141.824 50.8595 144.348 52.5766H126.188C126.364 52.4607 126.544 52.3544 126.714 52.2336C129.377 50.3561 131.423 47.7421 132.597 44.718C133.77 41.6961 134.02 38.3987 133.318 35.2365C132.613 32.0734 130.985 29.1859 128.638 26.9336C126.288 24.6879 123.324 23.1764 120.116 22.5865C116.905 21.9962 113.591 22.3557 110.585 23.6201C107.577 24.883 105.013 26.9984 103.212 29.7012C101.407 32.3999 100.444 35.5672 100.446 38.806V52.5911H89.9612C90.9237 51.9684 91.8195 51.2498 92.6348 50.4465C95.7491 47.3518 97.5002 43.1591 97.5046 38.7866C97.5086 35.5192 96.5322 32.3246 94.6996 29.6094C92.8749 26.8954 90.278 24.7804 87.2389 23.5332C84.1999 22.2859 80.8564 21.9598 77.6306 22.5961C74.4047 23.2347 71.4422 24.808 69.1181 27.1171C66.7927 29.4248 65.2098 32.3647 64.5696 35.5649C63.9257 38.7642 64.2546 42.0811 65.5144 45.0947C66.7731 48.1096 68.9051 50.6865 71.6407 52.4993L71.7868 52.5862H53.3494C54.314 51.9646 55.2101 51.2442 56.023 50.4368C59.1379 47.3445 60.8893 43.1531 60.8929 38.7818C60.8969 35.5144 59.9204 32.3198 58.0878 29.6046C56.2666 26.9057 53.6809 24.8016 50.6564 23.5573C47.6162 22.3077 44.2704 21.9816 41.0432 22.6203C37.8112 23.247 34.8397 24.8122 32.5063 27.1171C30.1795 29.4225 28.5948 32.3609 27.953 35.5601C27.3229 38.7641 27.6618 42.0812 28.9269 45.0947C30.1877 48.1071 32.3194 50.6819 35.0533 52.4945L35.1458 52.5476C28.3279 52.3737 23.7259 51.4174 20.6579 50.1953C23.312 47.9204 24.0132 45.3894 24.0132 43.3559V13.5493C24.0132 9.64662 20.7212 7.54553 17.6239 7.54553C16.0874 7.51402 14.59 8.0279 13.4017 8.99456C12.749 9.55341 12.2328 10.252 11.8921 11.0377C11.5441 11.8203 11.3777 12.6703 11.4051 13.5252V43.2835C11.3467 43.9017 11.298 46.3361 13.5625 48.9154C13.9932 49.4022 14.4622 49.8544 14.965 50.2678C10.4555 52.1515 5.0986 52.5814 5.00607 52.5814H3.5451V55.4795H5.00607C8.19583 55.2194 11.3411 54.5705 14.3708 53.5474C15.5425 53.1508 16.6821 52.6664 17.7798 52.0984C22.2211 54.3444 28.8052 55.4795 37.4395 55.4795H100.436V80.4511H102.93V55.4795H175.924V40.5061V40.481C175.745 37.7232 176.503 35.004 177.975 32.6572C179.447 30.3106 181.621 28.4784 184.193 27.4166C186.768 26.3575 189.611 26.1227 192.326 26.7452C195.041 27.3682 197.491 28.8172 199.334 30.8894L201.189 29.2713C199.006 26.82 196.105 25.1074 192.891 24.3736ZM143.846 30.3001C145.708 28.4493 148.08 27.187 150.664 26.6727C153.256 26.1627 155.942 26.4249 158.383 27.4262C160.822 28.4292 162.907 30.1269 164.373 32.3046C165.33 33.7319 166 35.3295 166.345 37.0092H140.189C140.717 34.4649 141.989 32.1314 143.846 30.3001ZM17.77 48.7849C17.0531 48.3254 16.3985 47.7768 15.8221 47.1524C14.1225 45.2831 14.2734 43.6361 14.2734 43.5926V13.5493C14.2487 13.1133 14.3236 12.6774 14.4926 12.2742C14.6595 11.8704 14.9177 11.5102 15.2474 11.2212C15.9011 10.6947 16.7238 10.4187 17.5655 10.4436C19.2359 10.4436 21.0328 11.4096 21.0669 13.5687V43.3946C21.0669 45.7178 19.718 47.4712 17.77 48.7849ZM78.1225 52.5331C75.3839 51.9915 72.8678 50.6589 70.8907 48.7028C68.9186 46.7419 67.575 44.2464 67.0289 41.5301C66.4835 38.8123 66.7631 35.995 67.8324 33.4349C68.9002 30.8767 70.7105 28.6911 73.0335 27.1557C75.3556 25.6163 78.0858 24.7943 80.8789 24.7938C82.7337 24.7933 84.5704 25.1552 86.2842 25.8588C87.9979 26.5625 89.5552 27.594 90.867 28.8946C92.1783 30.1957 93.2183 31.7402 93.9277 33.44C94.6371 35.1397 95.002 36.9615 95.0015 38.8011C95.001 41.5714 94.1723 44.2793 92.6201 46.5824C91.0721 48.8864 88.8685 50.682 86.2893 51.741C85.3202 52.1401 84.3091 52.4301 83.2748 52.6056H78.5413C78.4147 52.5766 78.2589 52.5621 78.1225 52.5331ZM34.2936 48.7028C32.3214 46.7419 30.9778 44.2464 30.4317 41.5301C29.8863 38.8123 30.1659 35.995 31.2353 33.4349C32.303 30.8767 34.1133 28.6911 36.4363 27.1557C38.7584 25.6163 41.4886 24.7943 44.2817 24.7938C46.1365 24.7933 47.9732 25.1552 49.687 25.8588C51.4008 26.5625 52.958 27.594 54.2698 28.8946C55.5811 30.1957 56.6212 31.7402 57.3306 33.44C58.04 35.1397 58.4048 36.9615 58.4043 38.8011C58.4 41.5707 57.5679 44.2769 56.0132 46.5776C54.4674 48.887 52.2636 50.6877 49.6824 51.7506C48.7133 52.1498 47.7022 52.4398 46.6679 52.6152H41.9393C41.798 52.5911 41.6568 52.5766 41.5205 52.5476C38.7784 52.0028 36.2604 50.665 34.2838 48.7028H34.2936ZM102.959 39.1875V38.8108C102.959 36.0613 103.777 33.3729 105.311 31.0826C106.829 28.7957 108.992 27.0019 111.53 25.9241C114.083 24.8509 116.898 24.5469 119.624 25.0498C122.35 25.5518 124.867 26.8386 126.86 28.7497C128.863 30.6624 130.252 33.1189 130.854 35.8113C131.449 38.4965 131.237 41.296 130.245 43.8631C129.253 46.4307 127.518 48.6504 125.258 50.2436C123.566 51.4401 121.629 52.2515 119.585 52.62H102.939L102.959 39.1875Z" stroke="white" stroke-width="2" mask="url(#path-4-outside-2_128_406)"/>
</g>
<defs>
<filter id="filter0_d_128_406" x="0.545105" y="4.54416" width="206.901" height="80.907" filterUnits="userSpaceOnUse" color-interpolation-filters="sRGB">
<feFlood flood-opacity="0" result="BackgroundImageFix"/>
<feColorMatrix in="SourceAlpha" type="matrix" values="0 0 0 0 0 0 0 0 0 0 0 0 0 0 0 0 0 0 127 0" result="hardAlpha"/>
<feOffset dx="2" dy="2"/>
<feComposite in2="hardAlpha" operator="out"/>
<feColorMatrix type="matrix" values="0 0 0 0 0 0 0 0 0 0 0 0 0 0 0 0 0 0 1 0"/>
<feBlend mode="normal" in2="BackgroundImageFix" result="effect1_dropShadow_128_406"/>
<feBlend mode="normal" in="SourceGraphic" in2="effect1_dropShadow_128_406" result="shape"/>
</filter>
<clipPath id="clip0_128_406">
<rect width="205" height="83" fill="white"/>
</clipPath>
</defs>
</svg>
