<svg width="40" height="41" viewBox="0 0 40 41" fill="none" xmlns="http://www.w3.org/2000/svg">
<path d="M16.6666 10.5H18.3333V12.1667H16.6666V10.5Z" fill="black"/>
<path d="M23.3333 10.5H21.6666V12.1667H23.3333V10.5Z" fill="black"/>
<path d="M9.99996 10.5H11.6666V12.1667H9.99996V10.5Z" fill="black"/>
<path d="M30 10.5H28.3333V12.1667H30V10.5Z" fill="black"/>
<path d="M8.33329 12.1667H9.99996V13.8333H8.33329V12.1667Z" fill="black"/>
<path d="M31.6666 12.1667H30V13.8333H31.6666V12.1667Z" fill="black"/>
<path d="M8.33329 20.5H9.99996V22.1667H8.33329V20.5Z" fill="black"/>
<path d="M31.6666 20.5H30V22.1667H31.6666V20.5Z" fill="black"/>
<path d="M15 27.1667H16.6666V28.8333H15V27.1667Z" fill="black"/>
<path d="M25 27.1667H23.3333V28.8333H25V27.1667Z" fill="black"/>
<path d="M16.6666 28.8333H18.3333V30.5H16.6666V28.8333Z" fill="black"/>
<path d="M23.3333 28.8333H21.6666V30.5H23.3333V28.8333Z" fill="black"/>
<path d="M13.3333 25.5H15V27.1667H13.3333V25.5Z" fill="black"/>
<path d="M26.6666 25.5H25V27.1667H26.6666V25.5Z" fill="black"/>
<path d="M11.6666 23.8333H13.3333V25.5H11.6666V23.8333Z" fill="black"/>
<path d="M28.3333 23.8333H26.6666V25.5H28.3333V23.8333Z" fill="black"/>
<path d="M9.99996 22.1667H11.6666V23.8333H9.99996V22.1667Z" fill="black"/>
<path d="M30 22.1667H28.3333V23.8333H30V22.1667Z" fill="black"/>
<path d="M11.6666 8.83334V10.5H16.6666V8.83334H11.6666Z" fill="black"/>
<path d="M28.3333 10.5V8.83334H23.3333V10.5H28.3333Z" fill="black"/>
<path d="M31.6666 20.5H33.3333V13.8333H31.6666V20.5Z" fill="black"/>
<path d="M6.66663 20.5H8.33329V13.8333H6.66663V20.5Z" fill="black"/>
<path d="M18.3333 30.5V32.1667H21.6666V30.5H18.3333Z" fill="black"/>
<path d="M18.3333 12.1667V13.8333H21.6666V12.1667H18.3333Z" fill="black"/>
<path d="M21.6666 30.5H18.3333V28.8333H16.6666V27.1667H14.9999V25.5H13.3333V23.8333H11.6666V22.1667H9.99992V20.5H8.33325V13.8333H9.99992V12.1667H11.6666V10.5H16.6666V12.1667H18.3333V13.8333H21.6666V12.1667H23.3333V10.5H28.3333V12.1667H29.9999V13.8333H31.6666V20.5H29.9999V22.1667H28.3333V23.8333H26.6666V25.5H24.9999V27.1667H23.3333V28.8333H21.6666V30.5Z" fill="#EE3200"/>
</svg>
