<svg width="200" height="200" viewBox="0 0 200 200" fill="none" xmlns="http://www.w3.org/2000/svg">
<rect x="2.49988" y="2.5" width="195" height="195" rx="97.5" fill="white"/>
<g clip-path="url(#clip0_128_439)">
<path d="M132.228 128.873C132.446 128.895 132.668 128.906 132.892 128.906C133.116 128.906 133.337 128.873 133.555 128.873H132.228ZM139.697 122.123C139.697 121.978 139.682 121.834 139.682 121.691V122.555C139.682 122.412 139.697 122.268 139.697 122.123ZM73.787 128.906C74.011 128.906 74.2323 128.895 74.4507 128.873H73.1234C73.3418 128.895 73.5631 128.906 73.787 128.906Z" fill="#387EF5"/>
<path d="M46.6055 87.377C48.2989 87.8767 50.0775 86.9093 50.5775 85.2156C52.0742 80.1462 54.3444 75.3486 57.3253 70.9559C60.2692 66.6161 63.8574 62.7504 67.9663 59.492C76.5052 52.718 86.7944 48.8966 97.7214 48.441C103.588 48.1963 109.381 48.9372 114.939 50.6428C120.311 52.2915 125.355 54.8045 129.93 58.112C134.463 61.3887 138.411 65.3531 141.664 69.8951C143.181 72.0139 144.535 74.2452 145.712 76.5699L140.8 74.0007C140.386 73.7839 139.933 73.6508 139.467 73.6092C139.001 73.5675 138.532 73.618 138.085 73.7578C137.639 73.8976 137.225 74.124 136.866 74.424C136.507 74.724 136.211 75.0917 135.994 75.5062C135.083 77.2489 135.756 79.4008 137.499 80.3124L150.122 86.9151C150.737 87.2372 151.432 87.372 152.122 87.3027C152.175 87.3032 152.228 87.305 152.282 87.3027C152.548 87.2915 152.811 87.2472 153.066 87.1708C154.557 86.7254 155.481 85.2892 155.333 83.7964C155.34 83.1282 155.159 82.4716 154.811 81.901C152.988 76.2824 150.319 70.9962 146.863 66.1715C143.207 61.0667 138.771 56.6115 133.677 52.9293C128.532 49.2102 122.859 46.3839 116.815 44.5291C110.562 42.6102 104.048 41.7765 97.4549 42.0514C85.1683 42.5638 73.5969 46.8623 63.9918 54.4819C59.3743 58.1438 55.342 62.488 52.0337 67.3649C48.6814 72.3047 46.1279 77.7014 44.4441 83.4051C43.944 85.0987 44.9117 86.8771 46.6055 87.377ZM153.225 112.618C151.531 112.119 149.753 113.086 149.253 114.78C147.757 119.85 145.487 124.647 142.506 129.04C139.563 133.38 135.975 137.246 131.866 140.505C123.328 147.28 113.039 151.102 102.112 151.559C96.2458 151.804 90.4531 151.064 84.8948 149.359C79.5224 147.711 74.4782 145.198 69.9023 141.891C65.3691 138.615 61.4211 134.651 58.1677 130.109C56.6279 127.959 55.2568 125.693 54.0668 123.332L59.0525 125.939C60.7953 126.85 62.9468 126.176 63.8581 124.433C64.7696 122.69 64.0956 120.539 62.3532 119.627L49.7294 113.025C48.934 112.61 48.011 112.51 47.1451 112.746C47.0163 112.767 46.889 112.797 46.7639 112.834C45.2028 113.301 44.2643 114.854 44.5256 116.42C44.5603 116.928 44.7029 117.423 44.9439 117.871C46.7689 123.577 49.4653 128.942 52.969 133.833C56.6254 138.938 61.0623 143.393 66.1564 147.074C71.3018 150.793 76.9751 153.618 83.0193 155.473C89.2727 157.391 95.7863 158.224 102.379 157.949C114.666 157.435 126.237 153.136 135.841 145.515C140.458 141.853 144.49 137.508 147.798 132.631C151.15 127.691 153.703 122.294 155.386 116.59C155.886 114.896 154.918 113.118 153.225 112.618Z" fill="#141414"/>
</g>
<path d="M100 65.0175V93.9036L79.1332 100.399L100 65.0175ZM100 65.0175V93.9036L120.867 100.399L100 65.0175ZM100 134.983V114.883L79.1332 103.376L100 134.983ZM100 134.983V114.883L120.867 103.376L100 134.983Z" fill="black"/>
<path d="M79.1332 100.399L100 90.702V110.648L79.1332 100.399ZM120.867 100.399L100 90.702V110.648L120.867 100.399Z" fill="black"/>
<rect x="2.49988" y="2.5" width="195" height="195" rx="97.5" stroke="black" stroke-width="5"/>
<defs>
<clipPath id="clip0_128_439">
<rect width="116" height="116" fill="white" transform="translate(42 42)"/>
</clipPath>
</defs>
</svg>