<svg width="201" height="200" viewBox="0 0 201 200" fill="none" xmlns="http://www.w3.org/2000/svg">
<rect x="2.83325" y="2.5" width="195" height="195" rx="97.5" fill="white"/>
<path d="M100 48.0175V76.9036L79.1332 83.3989L100 48.0175ZM100 48.0175V76.9036L120.867 83.3989L100 48.0175ZM100 117.983V97.883L79.1332 86.3756L100 117.983ZM100 117.983V97.883L120.867 86.3756L100 117.983Z" fill="black"/>
<path d="M79.1332 83.3989L100 73.702V93.6482L79.1332 83.3989ZM120.867 83.3989L100 73.702V93.6482L120.867 83.3989Z" fill="black"/>
<path fill-rule="evenodd" clip-rule="evenodd" d="M75.7286 123H63V149.668H75.7286V123ZM79.4418 127.682V145.178C82.413 144.418 84.8134 145.631 87.2034 146.839C87.9068 147.194 88.6093 147.549 89.3252 147.853C92.8597 149.354 96.3568 150.941 99.8539 152.529C100.954 153.028 102.053 153.528 103.154 154.024C105.334 155.006 107.565 155.314 109.883 154.647C111.616 154.148 113.351 153.654 115.085 153.16C120.414 151.642 125.745 150.124 131.03 148.464C132.652 147.956 134.137 146.947 135.592 145.959C135.844 145.787 136.096 145.616 136.347 145.448C137.297 144.826 137.221 143.808 136.12 143.402C135.925 143.329 135.726 143.252 135.526 143.174C134.209 142.664 132.81 142.123 131.533 142.252C125.395 142.862 119.278 143.719 113.17 144.609C110.59 144.989 108.206 144.832 105.738 143.829C102.406 142.471 99.0084 141.247 95.611 140.023C94.1651 139.502 92.7194 138.981 91.2789 138.45C91.1845 138.417 91.0816 138.39 90.9793 138.363C90.7148 138.293 90.4539 138.224 90.3521 138.056C90.2994 137.968 90.2419 137.875 90.1826 137.78C89.8211 137.198 89.3904 136.505 89.5547 136.089C89.7812 135.505 90.6904 135.037 91.3907 134.841C91.7544 134.748 92.1947 134.942 92.623 135.13C92.77 135.194 92.9155 135.258 93.0561 135.31C94.5643 135.862 96.0722 136.416 97.5803 136.97C101.083 138.256 104.586 139.543 108.094 140.813C108.53 140.953 109.348 141.092 109.413 140.953C109.469 140.834 109.526 140.714 109.584 140.593C110.029 139.666 110.492 138.7 110.537 137.729C110.566 137.083 109.81 136.125 109.16 135.778C108.066 135.199 106.934 134.693 105.802 134.188C104.289 133.512 102.778 132.836 101.362 131.988C95.3452 128.409 88.9486 126.888 82.0017 127.668C81.1494 127.721 80.2947 127.726 79.4418 127.682Z" fill="black"/>
<rect x="2.83325" y="2.5" width="195" height="195" rx="97.5" stroke="black" stroke-width="5"/>
</svg>
